<svg enable-background="new 0 0 372.341 410.639" height="410.639" viewBox="0 0 372.341 410.639" width="372.341" xmlns="http://www.w3.org/2000/svg" xmlns:xlink="http://www.w3.org/1999/xlink"><clipPath id="a"><path d="m99.15 258.442 86.43 49.491.799-97.111-87.827-46.295z"/></clipPath><g clip-rule="evenodd" fill-rule="evenodd"><path d="m186.482 333.768-.106 65.624-168.586-95.829 56.722-35.588z" fill="#f2ba25"/><path d="m186.482 333.768-.106 65.624 169.699-97.354-57.943-33.302z" fill="#dca12c"/><path d="m74.482 137.196-55.722-31.899 165.125-95.068 59.769 31.459z" fill="#f7bf21"/><path d="m74.482 137.196-55.722-31.899-.97 198.266 56.722-35.588z" fill="#fdcd1b"/><path d="m297.722 140.244 57.037-34.183 1.316 195.977-57.943-33.302z" fill="#dfaa2b"/><path d="m297.722 140.244 57.037-34.183-92.97-54.312-54.899 32.034z" fill="#f2ba25"/><path d="m186.006 203.584-87.247-45.715 86.65-48.2z" fill="#ec7d2a" stroke="#ec7d2a" stroke-miterlimit="22.9256" stroke-width=".216"/><path d="m186.006 203.584 83.801-47.619-84.398-46.296z" fill="#d75c2a" stroke="#ec7d2a" stroke-miterlimit="22.9256" stroke-width=".216"/><path clip-path="url(#a)" d="m-6.881 59.094h298.693v354.271h-298.693z" fill="#bbbdbf"/><path clip-path="url(#a)" d="m-104.776-45.126h585.738v585.739h-585.738z" fill="#bbbdbf" stroke="#bbbdbf" stroke-miterlimit="22.9256" stroke-width=".216"/><path clip-path="url(#a)" d="m186.482 333.768-.106 65.624-168.586-95.829 56.722-35.588z" fill="#bbbdbf"/><path clip-path="url(#a)" d="m186.482 333.768-.106 65.624 169.699-97.354-57.943-33.302z" fill="#bbbdbf"/><path clip-path="url(#a)" d="m186.006 203.584-87.247-45.715 86.65-48.2z" fill="#bbbdbf" stroke="#bbbdbf" stroke-miterlimit="22.9256" stroke-width=".216"/><path clip-path="url(#a)" d="m186.006 203.584 83.801-47.619-84.398-46.296z" fill="#bbbdbf" stroke="#bbbdbf" stroke-miterlimit="22.9256" stroke-width=".216"/></g><path d="m99.15 258.442 86.43 49.491.799-97.111-87.827-46.295z" fill="none" stroke="#bbbdbf" stroke-miterlimit="22.9256" stroke-width=".216"/><path d="m271.722 259.966-28.826 16.034-1.356-43.171-21.078 10.654.121 44.955-35.003 19.495.799-97.111 84.65-47.822z" style="fill-rule:evenodd;clip-rule:evenodd;fill:#929497;stroke:#929497;stroke-width:.216;stroke-miterlimit:22.9256"/><path clip-rule="evenodd" d="m121.053 223.256 19.011 9.599.64-23.023-19.888-10.359z" fill="#fff" fill-rule="evenodd"/><path clip-rule="evenodd" d="m144.463 235.465 19.012 9.6.639-23.023-19.887-10.359z" fill="#fff" fill-rule="evenodd"/><path clip-rule="evenodd" d="m121.053 251.729 19.011 9.599.64-23.024-19.888-10.358z" fill="#fff" fill-rule="evenodd"/><path clip-rule="evenodd" d="m144.463 263.384 19.012 9.601.639-23.023-19.887-10.359z" fill="#fff" fill-rule="evenodd"/></svg>